<?xml version="1.0" encoding="utf-8" ?>
<svg baseProfile="full" height="210mm" version="1.1" width="297mm" xmlns="http://www.w3.org/2000/svg" xmlns:ev="http://www.w3.org/2001/xml-events" xmlns:xlink="http://www.w3.org/1999/xlink"><defs /><line stroke="rgb(10%,10%,16%)" x1="95mm" x2="0cm" y1="0mm" y2="193mm" /><line stroke="rgb(10%,10%,16%)" x1="202mm" x2="297mm" y1="0mm" y2="193mm" /><line stroke="rgb(90%,90%,90%)" x1="0mm" x2="297mm" y1="185.0mm" y2="185.0mm" /><line stroke="rgb(90%,90%,90%)" x1="0mm" x2="297mm" y1="172.5mm" y2="172.5mm" /><line stroke="rgb(90%,90%,90%)" x1="0mm" x2="297mm" y1="160.0mm" y2="160.0mm" /><line stroke="rgb(90%,90%,90%)" x1="0mm" x2="297mm" y1="147.5mm" y2="147.5mm" /><line stroke="rgb(90%,90%,90%)" x1="0mm" x2="297mm" y1="135.0mm" y2="135.0mm" /><line stroke="rgb(90%,90%,90%)" x1="0mm" x2="297mm" y1="122.5mm" y2="122.5mm" /><line stroke="rgb(90%,90%,90%)" x1="0mm" x2="297mm" y1="110.0mm" y2="110.0mm" /><line stroke="rgb(90%,90%,90%)" x1="0mm" x2="297mm" y1="97.5mm" y2="97.5mm" /><line stroke="rgb(90%,90%,90%)" x1="0mm" x2="297mm" y1="85.0mm" y2="85.0mm" /><line stroke="rgb(90%,90%,90%)" x1="0mm" x2="297mm" y1="72.5mm" y2="72.5mm" /><line stroke="rgb(90%,90%,90%)" x1="0mm" x2="297mm" y1="60.0mm" y2="60.0mm" /><line stroke="rgb(90%,90%,90%)" x1="0mm" x2="297mm" y1="47.5mm" y2="47.5mm" /><line stroke="rgb(90%,90%,90%)" x1="0mm" x2="297mm" y1="35.0mm" y2="35.0mm" /><line stroke="rgb(90%,90%,90%)" x1="0mm" x2="297mm" y1="22.5mm" y2="22.5mm" /><line stroke="rgb(90%,90%,90%)" x1="0mm" x2="297mm" y1="10.0mm" y2="10.0mm" /><line stroke="rgb(90%,90%,90%)" x1="0mm" x2="297mm" y1="-2.5mm" y2="-2.5mm" /><line stroke="rgb(90%,90%,90%)" x1="0mm" x2="297mm" y1="-15.0mm" y2="-15.0mm" /><line stroke="rgb(90%,90%,90%)" x1="0mm" x2="297mm" y1="-27.5mm" y2="-27.5mm" /><line stroke="rgb(90%,90%,90%)" x1="0mm" x2="297mm" y1="-40.0mm" y2="-40.0mm" /><line stroke="rgb(90%,90%,90%)" x1="0mm" x2="297mm" y1="-52.5mm" y2="-52.5mm" /><g style="font-size:20pt"><text x="44.55000000000001mm" y="185.0mm">𝅘𝅥</text><text x="53.58913043478262mm" y="147.5mm">𝅘𝅥𝅮.</text><line stroke="black" stroke-dasharray="2,5" x1="53.58913043478262mm" x2="44.55000000000001mm" y1="147.5mm" y2="185.0mm" /><text x="60.36847826086958mm" y="147.5mm">𝅘𝅥𝅯</text><text x="62.628260869565224mm" y="135.0mm">𝅘𝅥𝅮</text><line stroke="black" stroke-dasharray="2,5" x1="62.628260869565224mm" x2="60.36847826086958mm" y1="135.0mm" y2="147.5mm" /><text x="67.14782608695653mm" y="160.0mm">𝅘𝅥𝅮</text><line stroke="black" stroke-dasharray="2,5" x1="67.14782608695653mm" x2="62.628260869565224mm" y1="160.0mm" y2="135.0mm" /><text x="71.66739130434783mm" y="147.5mm">𝅘𝅥.</text><line stroke="black" stroke-dasharray="2,5" x1="71.66739130434783mm" x2="67.14782608695653mm" y1="147.5mm" y2="160.0mm" /><text x="85.22608695652174mm" y="122.5mm">𝅘𝅥𝅮</text><line stroke="black" stroke-dasharray="2,5" x1="85.22608695652174mm" x2="71.66739130434783mm" y1="122.5mm" y2="147.5mm" /><text x="89.74565217391304mm" y="122.5mm">𝅘𝅥𝅮.</text><text x="96.525mm" y="122.5mm">𝅘𝅥𝅯</text><text x="98.78478260869565mm" y="135.0mm">𝅘𝅥𝅮</text><line stroke="black" stroke-dasharray="2,5" x1="98.78478260869565mm" x2="96.525mm" y1="135.0mm" y2="122.5mm" /><text x="103.30434782608695mm" y="147.5mm">𝅘𝅥𝅮</text><line stroke="black" stroke-dasharray="2,5" x1="103.30434782608695mm" x2="98.78478260869565mm" y1="147.5mm" y2="135.0mm" /><text x="107.82391304347827mm" y="147.5mm">𝅘𝅥𝅮</text><text x="112.34347826086957mm" y="160.0mm">𝅘𝅥𝅮</text><line stroke="black" stroke-dasharray="2,5" x1="112.34347826086957mm" x2="107.82391304347827mm" y1="160.0mm" y2="147.5mm" /><text x="116.86304347826086mm" y="160.0mm">𝅘𝅥𝅮</text><text x="121.38260869565218mm" y="185.0mm">𝅘𝅥𝅮</text><line stroke="black" stroke-dasharray="2,5" x1="121.38260869565218mm" x2="116.86304347826086mm" y1="185.0mm" y2="160.0mm" /><text x="125.90217391304348mm" y="172.5mm">𝅘𝅥𝅮</text><line stroke="black" stroke-dasharray="2,5" x1="125.90217391304348mm" x2="121.38260869565218mm" y1="172.5mm" y2="185.0mm" /><text x="130.4217391304348mm" y="172.5mm">𝅘𝅥𝅮</text><text x="134.94130434782608mm" y="160.0mm">𝅘𝅥𝅮</text><line stroke="black" stroke-dasharray="2,5" x1="134.94130434782608mm" x2="130.4217391304348mm" y1="160.0mm" y2="172.5mm" /><text x="139.4608695652174mm" y="160.0mm">𝅘𝅥𝅮</text><text x="143.98043478260868mm" y="147.5mm">𝅘𝅥𝅮</text><line stroke="black" stroke-dasharray="2,5" x1="143.98043478260868mm" x2="139.4608695652174mm" y1="147.5mm" y2="160.0mm" /><text x="148.5mm" y="135.0mm">𝅘𝅥𝅮</text><line stroke="black" stroke-dasharray="2,5" x1="148.5mm" x2="143.98043478260868mm" y1="135.0mm" y2="147.5mm" /><text x="153.01956521739132mm" y="122.5mm">𝅘𝅥𝅮</text><line stroke="black" stroke-dasharray="2,5" x1="153.01956521739132mm" x2="148.5mm" y1="122.5mm" y2="135.0mm" /><text x="157.5391304347826mm" y="122.5mm">𝅘𝅥𝅮</text><text x="162.0586956521739mm" y="135.0mm">𝅘𝅥𝅮.</text><line stroke="black" stroke-dasharray="2,5" x1="162.0586956521739mm" x2="157.5391304347826mm" y1="135.0mm" y2="122.5mm" /><text x="168.8380434782609mm" y="135.0mm">𝅘𝅥𝅯</text><text x="171.09782608695653mm" y="122.5mm">𝅘𝅥𝅮</text><line stroke="black" stroke-dasharray="2,5" x1="171.09782608695653mm" x2="168.8380434782609mm" y1="122.5mm" y2="135.0mm" /><text x="175.61739130434785mm" y="110.0mm">𝅘𝅥𝅮</text><line stroke="black" stroke-dasharray="2,5" x1="175.61739130434785mm" x2="171.09782608695653mm" y1="110.0mm" y2="122.5mm" /><text x="180.1369565217391mm" y="97.5mm">𝅘𝅥𝅮</text><line stroke="black" stroke-dasharray="2,5" x1="180.1369565217391mm" x2="175.61739130434785mm" y1="97.5mm" y2="110.0mm" /><text x="184.65652173913043mm" y="135.0mm">𝅘𝅥𝅮</text><line stroke="black" stroke-dasharray="2,5" x1="184.65652173913043mm" x2="180.1369565217391mm" y1="135.0mm" y2="97.5mm" /><text x="189.17608695652171mm" y="135.0mm">𝅘𝅥𝅮</text><text x="193.69565217391303mm" y="122.5mm">𝅘𝅥𝅮</text><line stroke="black" stroke-dasharray="2,5" x1="193.69565217391303mm" x2="189.17608695652171mm" y1="122.5mm" y2="135.0mm" /><text x="198.21521739130435mm" y="135.0mm">𝅘𝅥𝅮</text><line stroke="black" stroke-dasharray="2,5" x1="198.21521739130435mm" x2="193.69565217391303mm" y1="135.0mm" y2="122.5mm" /><text x="202.73478260869564mm" y="147.5mm">𝅘𝅥𝅮</text><line stroke="black" stroke-dasharray="2,5" x1="202.73478260869564mm" x2="198.21521739130435mm" y1="147.5mm" y2="135.0mm" /><text x="207.25434782608696mm" y="160.0mm">𝅘𝅥𝅮</text><line stroke="black" stroke-dasharray="2,5" x1="207.25434782608696mm" x2="202.73478260869564mm" y1="160.0mm" y2="147.5mm" /><text x="211.77391304347827mm" y="172.5mm">𝅘𝅥𝅮</text><line stroke="black" stroke-dasharray="2,5" x1="211.77391304347827mm" x2="207.25434782608696mm" y1="172.5mm" y2="160.0mm" /><text x="216.29347826086956mm" y="185.0mm">𝅘𝅥.</text><line stroke="black" stroke-dasharray="2,5" x1="216.29347826086956mm" x2="211.77391304347827mm" y1="185.0mm" y2="172.5mm" /><text x="229.85217391304346mm" y="185.0mm">𝅘𝅥𝅮</text><text x="234.37173913043478mm" y="172.5mm">𝅘𝅥</text><line stroke="black" stroke-dasharray="2,5" x1="234.37173913043478mm" x2="229.85217391304346mm" y1="172.5mm" y2="185.0mm" /><text x="243.41086956521738mm" y="160.0mm">𝅘𝅥</text><line stroke="black" stroke-dasharray="2,5" x1="243.41086956521738mm" x2="234.37173913043478mm" y1="160.0mm" y2="172.5mm" /><text x="252.45mm" y="147.5mm">𝅘𝅥</text><line stroke="black" stroke-dasharray="2,5" x1="252.45mm" x2="243.41086956521738mm" y1="147.5mm" y2="160.0mm" /></g></svg>