<?xml version="1.0" encoding="utf-8" ?>
<svg baseProfile="full" height="210mm" version="1.1" width="297mm" xmlns="http://www.w3.org/2000/svg" xmlns:ev="http://www.w3.org/2001/xml-events" xmlns:xlink="http://www.w3.org/1999/xlink"><defs /><line stroke="rgb(10%,10%,16%)" x1="95mm" x2="0cm" y1="0mm" y2="193mm" /><line stroke="rgb(10%,10%,16%)" x1="202mm" x2="297mm" y1="0mm" y2="193mm" /><line stroke="rgb(90%,90%,90%)" x1="0mm" x2="297mm" y1="185.0mm" y2="185.0mm" /><line stroke="rgb(90%,90%,90%)" x1="0mm" x2="297mm" y1="172.5mm" y2="172.5mm" /><line stroke="rgb(90%,90%,90%)" x1="0mm" x2="297mm" y1="160.0mm" y2="160.0mm" /><line stroke="rgb(90%,90%,90%)" x1="0mm" x2="297mm" y1="147.5mm" y2="147.5mm" /><line stroke="rgb(90%,90%,90%)" x1="0mm" x2="297mm" y1="135.0mm" y2="135.0mm" /><line stroke="rgb(90%,90%,90%)" x1="0mm" x2="297mm" y1="122.5mm" y2="122.5mm" /><line stroke="rgb(90%,90%,90%)" x1="0mm" x2="297mm" y1="110.0mm" y2="110.0mm" /><line stroke="rgb(90%,90%,90%)" x1="0mm" x2="297mm" y1="97.5mm" y2="97.5mm" /><line stroke="rgb(90%,90%,90%)" x1="0mm" x2="297mm" y1="85.0mm" y2="85.0mm" /><line stroke="rgb(90%,90%,90%)" x1="0mm" x2="297mm" y1="72.5mm" y2="72.5mm" /><line stroke="rgb(90%,90%,90%)" x1="0mm" x2="297mm" y1="60.0mm" y2="60.0mm" /><line stroke="rgb(90%,90%,90%)" x1="0mm" x2="297mm" y1="47.5mm" y2="47.5mm" /><line stroke="rgb(90%,90%,90%)" x1="0mm" x2="297mm" y1="35.0mm" y2="35.0mm" /><line stroke="rgb(90%,90%,90%)" x1="0mm" x2="297mm" y1="22.5mm" y2="22.5mm" /><line stroke="rgb(90%,90%,90%)" x1="0mm" x2="297mm" y1="10.0mm" y2="10.0mm" /><g style="font-size:30pt; text-align: center; width: 100%"><text x="80mm" y="50mm">Kijk eens om je heen</text></g><g style="font-size:30pt"><text x="29.69999999999999mm" y="160.0mm">ğ… </text><text x="33.0mm" y="160.0mm">ğ… </text><text x="36.3mm" y="172.5mm">ğ… </text><line stroke="black" stroke-dasharray="2,5" x1="36.3mm" x2="33.0mm" y1="172.5mm" y2="160.0mm" /><text x="39.599999999999994mm" y="172.5mm">ğ… </text><text x="42.89999999999999mm" y="185.0mm">ğ…Ÿ</text><line stroke="black" stroke-dasharray="2,5" x1="42.89999999999999mm" x2="39.599999999999994mm" y1="185.0mm" y2="172.5mm" /><text x="49.5mm" y="160.0mm">ğ… </text><line stroke="black" stroke-dasharray="2,5" x1="49.5mm" x2="42.89999999999999mm" y1="160.0mm" y2="185.0mm" /><text x="52.8mm" y="147.5mm">ğ… </text><line stroke="black" stroke-dasharray="2,5" x1="52.8mm" x2="49.5mm" y1="147.5mm" y2="160.0mm" /><text x="56.099999999999994mm" y="135.0mm">ğ…Ÿ</text><line stroke="black" stroke-dasharray="2,5" x1="56.099999999999994mm" x2="52.8mm" y1="135.0mm" y2="147.5mm" /><text x="62.69999999999999mm" y="122.5mm">ğ…Ÿ</text><line stroke="black" stroke-dasharray="2,5" x1="62.69999999999999mm" x2="56.099999999999994mm" y1="122.5mm" y2="135.0mm" /><text x="69.3mm" y="135.0mm">ğ…</text><line stroke="black" stroke-dasharray="2,5" x1="69.3mm" x2="62.69999999999999mm" y1="135.0mm" y2="122.5mm" /><text x="82.5mm" y="160.0mm">ğ… </text><line stroke="black" stroke-dasharray="2,5" x1="82.5mm" x2="69.3mm" y1="160.0mm" y2="135.0mm" /><text x="85.8mm" y="160.0mm">ğ… </text><text x="89.1mm" y="172.5mm">ğ… </text><line stroke="black" stroke-dasharray="2,5" x1="89.1mm" x2="85.8mm" y1="172.5mm" y2="160.0mm" /><text x="92.4mm" y="172.5mm">ğ… </text><text x="95.69999999999999mm" y="185.0mm">ğ…Ÿ</text><line stroke="black" stroke-dasharray="2,5" x1="95.69999999999999mm" x2="92.4mm" y1="185.0mm" y2="172.5mm" /><text x="102.3mm" y="160.0mm">ğ… </text><line stroke="black" stroke-dasharray="2,5" x1="102.3mm" x2="95.69999999999999mm" y1="160.0mm" y2="185.0mm" /><text x="105.6mm" y="147.5mm">ğ… </text><line stroke="black" stroke-dasharray="2,5" x1="105.6mm" x2="102.3mm" y1="147.5mm" y2="160.0mm" /><text x="108.9mm" y="135.0mm">ğ…Ÿ</text><line stroke="black" stroke-dasharray="2,5" x1="108.9mm" x2="105.6mm" y1="135.0mm" y2="147.5mm" /><text x="115.5mm" y="122.5mm">ğ…Ÿ</text><line stroke="black" stroke-dasharray="2,5" x1="115.5mm" x2="108.9mm" y1="122.5mm" y2="135.0mm" /><text x="122.1mm" y="135.0mm">ğ…</text><line stroke="black" stroke-dasharray="2,5" x1="122.1mm" x2="115.5mm" y1="135.0mm" y2="122.5mm" /><text x="135.3mm" y="147.5mm">ğ… </text><line stroke="black" stroke-dasharray="2,5" x1="135.3mm" x2="122.1mm" y1="147.5mm" y2="135.0mm" /><text x="138.6mm" y="147.5mm">ğ… </text><text x="141.9mm" y="172.5mm">ğ… </text><line stroke="black" stroke-dasharray="2,5" x1="141.9mm" x2="138.6mm" y1="172.5mm" y2="147.5mm" /><text x="145.2mm" y="172.5mm">ğ… </text><text x="148.5mm" y="135.0mm">ğ… </text><line stroke="black" stroke-dasharray="2,5" x1="148.5mm" x2="145.2mm" y1="135.0mm" y2="172.5mm" /><text x="151.8mm" y="135.0mm">ğ… </text><text x="155.1mm" y="160.0mm">ğ… </text><line stroke="black" stroke-dasharray="2,5" x1="155.1mm" x2="151.8mm" y1="160.0mm" y2="135.0mm" /><text x="158.4mm" y="160.0mm">ğ… </text><text x="161.7mm" y="147.5mm">ğ… </text><line stroke="black" stroke-dasharray="2,5" x1="161.7mm" x2="158.4mm" y1="147.5mm" y2="160.0mm" /><text x="165.0mm" y="147.5mm">ğ… </text><text x="168.3mm" y="172.5mm">ğ… </text><line stroke="black" stroke-dasharray="2,5" x1="168.3mm" x2="165.0mm" y1="172.5mm" y2="147.5mm" /><text x="171.6mm" y="172.5mm">ğ… </text><text x="174.9mm" y="135.0mm">ğ… </text><line stroke="black" stroke-dasharray="2,5" x1="174.9mm" x2="171.6mm" y1="135.0mm" y2="172.5mm" /><text x="178.2mm" y="135.0mm">ğ… </text><text x="181.5mm" y="160.0mm">ğ… </text><line stroke="black" stroke-dasharray="2,5" x1="181.5mm" x2="178.2mm" y1="160.0mm" y2="135.0mm" /><text x="184.8mm" y="160.0mm">ğ… </text><text x="188.1mm" y="185.0mm">ğ…Ÿ</text><line stroke="black" stroke-dasharray="2,5" x1="188.1mm" x2="184.8mm" y1="185.0mm" y2="160.0mm" /><text x="194.7mm" y="172.5mm">ğ…Ÿ</text><line stroke="black" stroke-dasharray="2,5" x1="194.7mm" x2="188.1mm" y1="172.5mm" y2="185.0mm" /><text x="201.3mm" y="160.0mm">ğ…Ÿ</text><line stroke="black" stroke-dasharray="2,5" x1="201.3mm" x2="194.7mm" y1="160.0mm" y2="172.5mm" /><text x="207.9mm" y="147.5mm">ğ…Ÿ</text><line stroke="black" stroke-dasharray="2,5" x1="207.9mm" x2="201.3mm" y1="147.5mm" y2="160.0mm" /><text x="214.5mm" y="135.0mm">ğ…Ÿ</text><line stroke="black" stroke-dasharray="2,5" x1="214.5mm" x2="207.9mm" y1="135.0mm" y2="147.5mm" /><text x="221.10000000000002mm" y="135.0mm">ğ…Ÿ</text><text x="227.7mm" y="135.0mm">ğ…</text><text x="240.9mm" y="160.0mm">ğ… </text><line stroke="black" stroke-dasharray="2,5" x1="240.9mm" x2="227.7mm" y1="160.0mm" y2="135.0mm" /><text x="244.2mm" y="160.0mm">ğ… </text><text x="247.5mm" y="160.0mm">ğ… </text><text x="250.8mm" y="160.0mm">ğ… </text><text x="254.10000000000002mm" y="172.5mm">ğ…Ÿ</text><line stroke="black" stroke-dasharray="2,5" x1="254.10000000000002mm" x2="250.8mm" y1="172.5mm" y2="160.0mm" /><text x="260.7mm" y="172.5mm">ğ…Ÿ</text><text x="267.3mm" y="185.0mm">ğ…</text><line stroke="black" stroke-dasharray="2,5" x1="267.3mm" x2="260.7mm" y1="185.0mm" y2="172.5mm" /></g></svg>