<?xml version="1.0" encoding="utf-8" ?>
<svg baseProfile="full" height="210mm" version="1.1" width="297mm" xmlns="http://www.w3.org/2000/svg" xmlns:ev="http://www.w3.org/2001/xml-events" xmlns:xlink="http://www.w3.org/1999/xlink"><defs /><line stroke="rgb(10%,10%,16%)" x1="95mm" x2="0cm" y1="0mm" y2="193mm" /><line stroke="rgb(10%,10%,16%)" x1="202mm" x2="297mm" y1="0mm" y2="193mm" /><line stroke="rgb(90%,90%,90%)" x1="0mm" x2="297mm" y1="185.0mm" y2="185.0mm" /><line stroke="rgb(90%,90%,90%)" x1="0mm" x2="297mm" y1="172.5mm" y2="172.5mm" /><line stroke="rgb(90%,90%,90%)" x1="0mm" x2="297mm" y1="160.0mm" y2="160.0mm" /><line stroke="rgb(90%,90%,90%)" x1="0mm" x2="297mm" y1="147.5mm" y2="147.5mm" /><line stroke="rgb(90%,90%,90%)" x1="0mm" x2="297mm" y1="135.0mm" y2="135.0mm" /><line stroke="rgb(90%,90%,90%)" x1="0mm" x2="297mm" y1="122.5mm" y2="122.5mm" /><line stroke="rgb(90%,90%,90%)" x1="0mm" x2="297mm" y1="110.0mm" y2="110.0mm" /><line stroke="rgb(90%,90%,90%)" x1="0mm" x2="297mm" y1="97.5mm" y2="97.5mm" /><line stroke="rgb(90%,90%,90%)" x1="0mm" x2="297mm" y1="85.0mm" y2="85.0mm" /><line stroke="rgb(90%,90%,90%)" x1="0mm" x2="297mm" y1="72.5mm" y2="72.5mm" /><line stroke="rgb(90%,90%,90%)" x1="0mm" x2="297mm" y1="60.0mm" y2="60.0mm" /><line stroke="rgb(90%,90%,90%)" x1="0mm" x2="297mm" y1="47.5mm" y2="47.5mm" /><line stroke="rgb(90%,90%,90%)" x1="0mm" x2="297mm" y1="35.0mm" y2="35.0mm" /><line stroke="rgb(90%,90%,90%)" x1="0mm" x2="297mm" y1="22.5mm" y2="22.5mm" /><line stroke="rgb(90%,90%,90%)" x1="0mm" x2="297mm" y1="10.0mm" y2="10.0mm" /><g style="font-size:30pt; text-align: center; width: 100%"><text x="80mm" y="50mm">Handen heb je om te geven</text></g><g style="font-size:30pt"><text x="34.155mm" y="160.0mm">ğ…Ÿ</text><text x="38.39mm" y="160.0mm">ğ… </text><text x="40.50749999999999mm" y="160.0mm">ğ…Ÿ</text><text x="44.74249999999999mm" y="172.5mm">ğ… </text><line stroke="black" stroke-dasharray="2,5" x1="44.74249999999999mm" x2="40.50749999999999mm" y1="172.5mm" y2="160.0mm" /><text x="46.86mm" y="185.0mm">ğ…Ÿ</text><line stroke="black" stroke-dasharray="2,5" x1="46.86mm" x2="44.74249999999999mm" y1="185.0mm" y2="172.5mm" /><text x="51.095mm" y="185.0mm">ğ… </text><text x="53.21249999999999mm" y="185.0mm">ğ…Ÿ</text><text x="57.44749999999999mm" y="185.0mm">ğ… </text><text x="59.565mm" y="160.0mm">ğ…Ÿ</text><line stroke="black" stroke-dasharray="2,5" x1="59.565mm" x2="57.44749999999999mm" y1="160.0mm" y2="185.0mm" /><text x="63.8mm" y="160.0mm">ğ… </text><text x="65.9175mm" y="147.5mm">ğ…Ÿ</text><line stroke="black" stroke-dasharray="2,5" x1="65.9175mm" x2="63.8mm" y1="147.5mm" y2="160.0mm" /><text x="70.1525mm" y="147.5mm">ğ… </text><text x="72.27mm" y="135.0mm">ğ… </text><line stroke="black" stroke-dasharray="2,5" x1="72.27mm" x2="70.1525mm" y1="135.0mm" y2="147.5mm" /><text x="74.3875mm" y="172.5mm">ğ…Ÿ</text><line stroke="black" stroke-dasharray="2,5" x1="74.3875mm" x2="72.27mm" y1="172.5mm" y2="135.0mm" /><text x="78.6225mm" y="160.0mm">ğ…Ÿ.</text><line stroke="black" stroke-dasharray="2,5" x1="78.6225mm" x2="74.3875mm" y1="160.0mm" y2="172.5mm" /><text x="84.975mm" y="97.5mm">ğ…Ÿ</text><line stroke="black" stroke-dasharray="2,5" x1="84.975mm" x2="78.6225mm" y1="97.5mm" y2="160.0mm" /><text x="89.21000000000001mm" y="97.5mm">ğ… </text><text x="91.3275mm" y="122.5mm">ğ…Ÿ</text><line stroke="black" stroke-dasharray="2,5" x1="91.3275mm" x2="89.21000000000001mm" y1="122.5mm" y2="97.5mm" /><text x="95.5625mm" y="122.5mm">ğ… </text><text x="97.68mm" y="135.0mm">ğ…Ÿ</text><line stroke="black" stroke-dasharray="2,5" x1="97.68mm" x2="95.5625mm" y1="135.0mm" y2="122.5mm" /><text x="101.91499999999999mm" y="135.0mm">ğ… </text><text x="104.0325mm" y="160.0mm">ğ…Ÿ</text><line stroke="black" stroke-dasharray="2,5" x1="104.0325mm" x2="101.91499999999999mm" y1="160.0mm" y2="135.0mm" /><text x="108.2675mm" y="160.0mm">ğ… </text><text x="110.38499999999999mm" y="147.5mm">ğ…Ÿ</text><line stroke="black" stroke-dasharray="2,5" x1="110.38499999999999mm" x2="108.2675mm" y1="147.5mm" y2="160.0mm" /><text x="114.62mm" y="147.5mm">ğ… </text><text x="116.7375mm" y="160.0mm">ğ…Ÿ</text><line stroke="black" stroke-dasharray="2,5" x1="116.7375mm" x2="114.62mm" y1="160.0mm" y2="147.5mm" /><text x="120.9725mm" y="160.0mm">ğ… </text><text x="123.09mm" y="172.5mm">ğ…Ÿ</text><line stroke="black" stroke-dasharray="2,5" x1="123.09mm" x2="120.9725mm" y1="172.5mm" y2="160.0mm" /><text x="127.325mm" y="172.5mm">ğ… </text><text x="129.4425mm" y="185.0mm">ğ…Ÿ.</text><line stroke="black" stroke-dasharray="2,5" x1="129.4425mm" x2="127.325mm" y1="185.0mm" y2="172.5mm" /><text x="135.795mm" y="160.0mm">ğ…Ÿ</text><line stroke="black" stroke-dasharray="2,5" x1="135.795mm" x2="129.4425mm" y1="160.0mm" y2="185.0mm" /><text x="140.03mm" y="135.0mm">ğ… .</text><line stroke="black" stroke-dasharray="2,5" x1="140.03mm" x2="135.795mm" y1="135.0mm" y2="160.0mm" /><text x="143.20625mm" y="135.0mm">ğ…¡</text><text x="144.265mm" y="122.5mm">ğ…Ÿ</text><line stroke="black" stroke-dasharray="2,5" x1="144.265mm" x2="143.20625mm" y1="122.5mm" y2="135.0mm" /><text x="148.5mm" y="97.5mm">ğ…Ÿ</text><line stroke="black" stroke-dasharray="2,5" x1="148.5mm" x2="144.265mm" y1="97.5mm" y2="122.5mm" /><text x="152.735mm" y="110.0mm">ğ… </text><line stroke="black" stroke-dasharray="2,5" x1="152.735mm" x2="148.5mm" y1="110.0mm" y2="97.5mm" /><text x="154.8525mm" y="110.0mm">ğ…Ÿ.</text><text x="161.205mm" y="97.5mm">ğ…Ÿ</text><line stroke="black" stroke-dasharray="2,5" x1="161.205mm" x2="154.8525mm" y1="97.5mm" y2="110.0mm" /><text x="165.44mm" y="97.5mm">ğ…Ÿ</text><text x="169.675mm" y="97.5mm">ğ…Ÿ</text><text x="173.91mm" y="97.5mm">ğ… .</text><text x="177.08625mm" y="110.0mm">ğ…¡</text><line stroke="black" stroke-dasharray="2,5" x1="177.08625mm" x2="173.91mm" y1="110.0mm" y2="97.5mm" /><text x="178.145mm" y="122.5mm">ğ…Ÿ.</text><line stroke="black" stroke-dasharray="2,5" x1="178.145mm" x2="177.08625mm" y1="122.5mm" y2="110.0mm" /><text x="184.4975mm" y="122.5mm">ğ… </text><text x="186.615mm" y="135.0mm">ğ… </text><line stroke="black" stroke-dasharray="2,5" x1="186.615mm" x2="184.4975mm" y1="135.0mm" y2="122.5mm" /><text x="188.73250000000002mm" y="172.5mm">ğ…Ÿ.</text><line stroke="black" stroke-dasharray="2,5" x1="188.73250000000002mm" x2="186.615mm" y1="172.5mm" y2="135.0mm" /><text x="195.085mm" y="160.0mm">ğ…</text><line stroke="black" stroke-dasharray="2,5" x1="195.085mm" x2="188.73250000000002mm" y1="160.0mm" y2="172.5mm" /><text x="203.555mm" y="160.0mm">ğ…Ÿ</text><text x="207.79mm" y="135.0mm">ğ… .</text><line stroke="black" stroke-dasharray="2,5" x1="207.79mm" x2="203.555mm" y1="135.0mm" y2="160.0mm" /><text x="210.96625mm" y="135.0mm">ğ…¡</text><text x="212.025mm" y="122.5mm">ğ…Ÿ</text><line stroke="black" stroke-dasharray="2,5" x1="212.025mm" x2="210.96625mm" y1="122.5mm" y2="135.0mm" /><text x="216.26mm" y="97.5mm">ğ…Ÿ</text><line stroke="black" stroke-dasharray="2,5" x1="216.26mm" x2="212.025mm" y1="97.5mm" y2="122.5mm" /><text x="220.495mm" y="110.0mm">ğ… </text><line stroke="black" stroke-dasharray="2,5" x1="220.495mm" x2="216.26mm" y1="110.0mm" y2="97.5mm" /><text x="222.6125mm" y="110.0mm">ğ…Ÿ.</text><text x="228.965mm" y="97.5mm">ğ…Ÿ</text><line stroke="black" stroke-dasharray="2,5" x1="228.965mm" x2="222.6125mm" y1="97.5mm" y2="110.0mm" /><text x="233.2mm" y="97.5mm">ğ…Ÿ</text><text x="237.435mm" y="97.5mm">ğ…Ÿ</text><text x="241.67000000000002mm" y="97.5mm">ğ… .</text><text x="244.84625mm" y="110.0mm">ğ…¡</text><line stroke="black" stroke-dasharray="2,5" x1="244.84625mm" x2="241.67000000000002mm" y1="110.0mm" y2="97.5mm" /><text x="245.905mm" y="122.5mm">ğ…Ÿ.</text><line stroke="black" stroke-dasharray="2,5" x1="245.905mm" x2="244.84625mm" y1="122.5mm" y2="110.0mm" /><text x="252.2575mm" y="122.5mm">ğ… </text><text x="254.375mm" y="135.0mm">ğ… </text><line stroke="black" stroke-dasharray="2,5" x1="254.375mm" x2="252.2575mm" y1="135.0mm" y2="122.5mm" /><text x="256.4925mm" y="172.5mm">ğ…Ÿ.</text><line stroke="black" stroke-dasharray="2,5" x1="256.4925mm" x2="254.375mm" y1="172.5mm" y2="135.0mm" /><text x="262.845mm" y="172.5mm">ğ…</text></g></svg>