<?xml version="1.0" encoding="utf-8" ?>
<svg baseProfile="full" height="210mm" version="1.1" width="297mm" xmlns="http://www.w3.org/2000/svg" xmlns:ev="http://www.w3.org/2001/xml-events" xmlns:xlink="http://www.w3.org/1999/xlink"><defs /><line stroke="rgb(10%,10%,16%)" x1="95mm" x2="0cm" y1="0mm" y2="193mm" /><line stroke="rgb(10%,10%,16%)" x1="202mm" x2="297mm" y1="0mm" y2="193mm" /><line stroke="rgb(90%,90%,90%)" x1="0mm" x2="297mm" y1="185.0mm" y2="185.0mm" /><line stroke="rgb(90%,90%,90%)" x1="0mm" x2="297mm" y1="172.5mm" y2="172.5mm" /><line stroke="rgb(90%,90%,90%)" x1="0mm" x2="297mm" y1="160.0mm" y2="160.0mm" /><line stroke="rgb(90%,90%,90%)" x1="0mm" x2="297mm" y1="147.5mm" y2="147.5mm" /><line stroke="rgb(90%,90%,90%)" x1="0mm" x2="297mm" y1="135.0mm" y2="135.0mm" /><line stroke="rgb(90%,90%,90%)" x1="0mm" x2="297mm" y1="122.5mm" y2="122.5mm" /><line stroke="rgb(90%,90%,90%)" x1="0mm" x2="297mm" y1="110.0mm" y2="110.0mm" /><line stroke="rgb(90%,90%,90%)" x1="0mm" x2="297mm" y1="97.5mm" y2="97.5mm" /><line stroke="rgb(90%,90%,90%)" x1="0mm" x2="297mm" y1="85.0mm" y2="85.0mm" /><line stroke="rgb(90%,90%,90%)" x1="0mm" x2="297mm" y1="72.5mm" y2="72.5mm" /><line stroke="rgb(90%,90%,90%)" x1="0mm" x2="297mm" y1="60.0mm" y2="60.0mm" /><line stroke="rgb(90%,90%,90%)" x1="0mm" x2="297mm" y1="47.5mm" y2="47.5mm" /><line stroke="rgb(90%,90%,90%)" x1="0mm" x2="297mm" y1="35.0mm" y2="35.0mm" /><line stroke="rgb(90%,90%,90%)" x1="0mm" x2="297mm" y1="22.5mm" y2="22.5mm" /><line stroke="rgb(90%,90%,90%)" x1="0mm" x2="297mm" y1="10.0mm" y2="10.0mm" /><g style="font-size:30pt; text-align: center; width: 100%"><text x="80mm" y="50mm" /></g><g style="font-size:30pt" /></svg>